<svg width="24" height="24" viewBox="0 0 24 24" fill="none" xmlns="http://www.w3.org/2000/svg"><path fill-rule="evenodd" clip-rule="evenodd" d="M6.66556 4L6.31658 2.37141C6.02017 0.9882 4.79778 0 3.38317 0H1C0.447715 0 0 0.447715 0 1C0 1.55228 0.447715 2 1 2H3.38317C3.85471 2 4.26217 2.3294 4.36097 2.79047L6.85281 14.4191C7.05041 15.3412 7.86534 16 8.80842 16H16.901C19.7611 16 22.2236 13.9812 22.7845 11.1767L23.9806 5.19612C24.1043 4.57732 23.631 4 23 4H6.66556ZM8.5 24C9.88071 24 11 22.8807 11 21.5C11 20.1193 9.88071 19 8.5 19C7.11929 19 6 20.1193 6 21.5C6 22.8807 7.11929 24 8.5 24ZM22 21.5C22 22.8807 20.8807 24 19.5 24C18.1193 24 17 22.8807 17 21.5C17 20.1193 18.1193 19 19.5 19C20.8807 19 22 20.1193 22 21.5Z"/></svg>
