<svg width="24" height="24" viewBox="0 0 24 24" fill="none" xmlns="http://www.w3.org/2000/svg"><path fill-rule="evenodd" clip-rule="evenodd" d="M12 13.4142L5.20711 20.2071C4.81658 20.5976 4.18342 20.5976 3.79289 20.2071C3.40237 19.8166 3.40237 19.1834 3.79289 18.7929L10.5858 12L3.79289 5.20711C3.40237 4.81658 3.40237 4.18342 3.79289 3.79289C4.18342 3.40237 4.81658 3.40237 5.20711 3.79289L12 10.5858L18.7929 3.79289C19.1834 3.40237 19.8166 3.40237 20.2071 3.79289C20.5976 4.18342 20.5976 4.81658 20.2071 5.20711L13.4142 12L20.2071 18.7929C20.5976 19.1834 20.5976 19.8166 20.2071 20.2071C19.8166 20.5976 19.1834 20.5976 18.7929 20.2071L12 13.4142Z"/></svg>