<svg width="30" height="22" viewBox="0 0 30 22" fill="none" xmlns="http://www.w3.org/2000/svg"><path fill-rule="evenodd" clip-rule="evenodd" d="M1.36264 14.5473V1.63274C1.36264 0.9151 1.92481 0.333313 2.61836 0.333313H15.0922C15.7857 0.333313 16.3479 0.9151 16.3479 1.63274V14.5474C16.3479 14.7866 16.1605 14.9805 15.9293 14.9805H1.78121C1.55 14.9805 1.36264 14.7866 1.36264 14.5473ZM11.4356 18.9716C11.4356 20.46 10.2695 21.6666 8.83118 21.6666C7.39284 21.6666 6.22674 20.46 6.22674 18.9716C6.22674 17.4831 7.39284 16.2765 8.83118 16.2765C10.2695 16.2765 11.4356 17.4831 11.4356 18.9716ZM10.1333 18.9716C10.1333 18.2274 9.55031 17.624 8.83112 17.624C8.11192 17.624 7.52885 18.2274 7.52885 18.9716C7.52885 19.7158 8.11192 20.3192 8.83112 20.3192C9.55031 20.3192 10.1333 19.7158 10.1333 18.9716ZM6.58804 16.2765H0.751949C0.520781 16.2765 0.333374 16.4704 0.333374 16.7096V18.0237C0.333374 18.2629 0.520781 18.4568 0.751949 18.4568H5.42985C5.55198 17.5897 5.97496 16.8237 6.58804 16.2765ZM25.0624 18.9716C25.0624 20.46 23.8963 21.6666 22.458 21.6666C21.0196 21.6666 19.8536 20.46 19.8536 18.9716C19.8536 17.4831 21.0196 16.2765 22.458 16.2765C23.8963 16.2765 25.0624 17.4831 25.0624 18.9716ZM23.7602 18.9716C23.7602 18.2274 23.1772 17.624 22.458 17.624C21.7387 17.624 21.1557 18.2274 21.1557 18.9716C21.1557 19.7158 21.7388 20.3192 22.458 20.3192C23.1772 20.3192 23.7602 19.7158 23.7602 18.9716ZM29.6667 16.7096V18.0237C29.6667 18.2629 29.4793 18.4568 29.2481 18.4568H25.8592C25.6168 16.7366 24.1862 15.4102 22.4581 15.4102C20.7296 15.4102 19.2989 16.7367 19.0565 18.4568H12.2326C12.1104 17.5897 11.6874 16.8237 11.0744 16.2765H17.5447V3.88727C17.5447 3.40885 17.9195 3.02099 18.3818 3.02099H22.3334C23.4461 3.02099 24.486 3.59291 25.1086 4.54713L27.6561 8.45155C28.0298 9.02426 28.2294 9.69949 28.2294 10.3905V16.2765H29.2481C29.4793 16.2765 29.6667 16.4704 29.6667 16.7096ZM25.4204 8.55154L23.3833 5.55615C23.3049 5.44089 23.1772 5.37229 23.041 5.37229H19.8635C19.6323 5.37229 19.4449 5.56622 19.4449 5.80543V8.80082C19.4449 9.04008 19.6323 9.23396 19.8635 9.23396H25.0782C25.4172 9.23396 25.6156 8.83851 25.4204 8.55154Z" fill="#D0D0D0"/></svg>