<svg width="24" height="24" viewBox="0 0 24 24" fill="none" xmlns="http://www.w3.org/2000/svg"><path fill-rule="evenodd" clip-rule="evenodd" d="M3 1H21C22.1046 1 23 1.89543 23 3V21C23 22.1046 22.1046 23 21 23H3C1.89543 23 1 22.1046 1 21V3C1 1.89543 1.89543 1 3 1ZM3 3V21H21V3H3ZM17 16H7C6.44772 16 6 16.4477 6 17C6 17.5523 6.44772 18 7 18H17C17.5523 18 18 17.5523 18 17C18 16.4477 17.5523 16 17 16ZM7 11H17C17.5523 11 18 11.4477 18 12C18 12.5523 17.5523 13 17 13H7C6.44772 13 6 12.5523 6 12C6 11.4477 6.44772 11 7 11ZM17 6H7C6.44772 6 6 6.44772 6 7C6 7.55228 6.44772 8 7 8H17C17.5523 8 18 7.55228 18 7C18 6.44772 17.5523 6 17 6Z"/></svg>