<svg width="199" height="145" viewBox="0 0 199 145" fill="none" xmlns="http://www.w3.org/2000/svg">
<path fill-rule="evenodd" clip-rule="evenodd" d="M192.05 27.5511L174.095 38.5796L133.942 38.3034L151.604 24.4072L184.043 25.3222C184.805 25.3573 185.542 24.9513 185.944 24.2941L193.323 12.2126L192.05 27.5511ZM125.97 78.2603L121.107 82.4536L110.852 56.4692L124.294 45.8941L128.768 52.9445L125.331 59.5042C125.157 59.8389 125.076 60.2133 125.093 60.5909L125.97 78.2603ZM118.997 84.7413L115.256 98.0445C115.115 98.5514 115.167 99.0914 115.405 99.5696L115.72 100.195L107.978 118.513C107.951 118.568 107.929 118.625 107.907 118.681L99.6123 138.306L99.753 32.156L119.88 83.5118L119.655 83.7061C119.337 83.9823 119.109 84.3404 118.997 84.7413ZM112.131 112.231L116.569 101.88L117.624 103.973L112.131 112.231ZM102.922 139.987L100.163 140.142L107.86 122.192L108.34 135.098L102.922 139.987ZM95.8259 139.987L90.4068 135.098L90.8731 122.586L98.27 140.121L95.8259 139.987ZM82.1567 101.921L86.3136 111.777L81.1228 103.973L82.1567 101.921ZM79.0888 83.7033L78.8959 83.537L98.6769 32.7977L98.5219 137.888L90.9802 119.714L90.9874 119.519C91.002 119.073 90.8795 118.641 90.6333 118.27L89.9617 117.26L82.9459 100.354L83.34 99.5717C83.5797 99.0985 83.633 98.556 83.4893 98.0406L79.7508 84.7421C79.6362 84.3365 79.4057 83.9763 79.0888 83.7033ZM72.7773 78.2603L73.5736 62.205C73.6444 60.7692 73.3289 59.338 72.6626 58.0659L69.9791 52.9445L74.3218 46.1029L87.8184 57.013L77.7483 82.5475L72.7773 78.2603ZM6.69713 27.5511L5.42381 12.2126L12.8047 24.2973C13.2059 24.951 13.9036 25.3374 14.7054 25.3222L47.4721 24.3979L64.6747 38.3041L24.6514 38.5796L6.69713 27.5511ZM74.2328 27.1604C74.5408 27.3462 74.8948 27.4518 75.2546 27.4663L96.3414 28.3388L98.0271 31.1268L88.3521 55.6591L74.9145 44.7444C74.9824 44.0942 74.7551 43.4273 74.2464 42.9569L69.7848 38.8465C69.3839 38.4807 68.8655 38.2789 68.3225 38.2789H68.3075L66.9659 38.2882L49.7844 24.3327L68.5926 23.8023L74.2328 27.1604ZM102.405 28.3388L123.464 27.4692L124.042 27.4412L130.155 23.8023L149.439 24.3462L131.719 38.2878L130.439 38.2789C129.93 38.3002 129.363 38.4785 128.961 38.8494L124.5 42.9579C124.055 43.3695 123.826 43.9329 123.82 44.5026L110.321 55.123L100.798 30.996L102.405 28.3388ZM197.257 0.167692C196.3 -0.140034 195.274 0.242496 194.755 1.09158L182.756 20.7357L129.572 19.235C129.166 19.2258 128.76 19.329 128.407 19.5381L122.681 22.9472L100.903 23.8474C100.306 23.8725 99.7562 24.1388 99.3729 24.5756C98.9892 24.1388 98.4404 23.8725 97.8423 23.8474L76.0656 22.9472L70.3389 19.5371C69.9859 19.3283 69.5558 19.2205 69.1721 19.235L15.9905 20.7361L3.99223 1.09158C3.47276 0.241787 2.44739 -0.141452 1.48954 0.167692C0.534558 0.474355 -0.0738751 1.38158 0.00722541 2.37389L2.22874 29.1344C2.2834 29.8097 2.66282 30.4241 3.24089 30.7772L22.8376 42.8161C23.1838 43.0267 23.5514 43.1132 23.983 43.1338L67.3743 42.8331L69.6487 44.928L65.3564 51.693C64.9527 52.3301 64.9184 53.1416 65.2685 53.8163L69.0431 61.0184L68.1413 79.2069C68.1092 79.8659 68.3768 80.492 68.8777 80.9235L75.53 86.6639L78.8227 98.3685L76.3932 103.187C76.0524 103.868 76.1028 104.684 76.524 105.315L86.3782 120.129L85.7827 136.055C85.7601 136.685 86.017 137.289 86.4858 137.711L93.3782 143.925C93.7416 144.257 94.2146 144.454 94.7087 144.481L97.0435 144.61L97.0596 144.866L99.374 144.738L100.329 144.791L101.694 144.751L101.703 144.61L104.037 144.481C104.532 144.454 105.005 144.257 105.366 143.929L112.26 137.711C112.729 137.289 112.987 136.685 112.964 136.051L112.369 120.129L122.22 105.318C122.644 104.684 122.694 103.868 122.352 103.183L119.926 98.3703L123.216 86.6639L129.869 80.9242C130.367 80.4945 130.636 79.8709 130.607 79.2069L129.704 61.0184L133.478 53.8163C133.83 53.1469 133.795 52.3333 133.39 51.693L129.098 44.928L131.373 42.8331L174.762 43.1338C175.151 43.1412 175.563 43.0274 175.912 42.814L195.503 30.779C196.084 30.4241 196.463 29.8097 196.518 29.1368L198.74 2.37354C198.821 1.38158 198.212 0.474355 197.257 0.167692Z" fill="#231F20"/>
</svg>
