<svg width="18" height="18" viewBox="0 0 18 18" fill="none" xmlns="http://www.w3.org/2000/svg">
<path d="M17.0231 7.74417H10.2558V0.976745C10.2558 0.668461 9.83717 0 8.99996 0C8.16276 0 7.74414 0.668498 7.74414 0.976745V7.74421H0.976741C0.668495 7.74417 0 8.1628 0 8.99996C0 9.83713 0.668495 10.2558 0.976741 10.2558H7.74418V17.0233C7.74418 17.3315 8.16276 18 9 18C9.83724 18 10.2558 17.3315 10.2558 17.0233V10.2558H17.0233C17.3315 10.2558 18 9.83721 18 8.99996C18 8.16272 17.3314 7.74417 17.0231 7.74417Z" fill="#B7B7B7"/>
</svg>
