<svg width="48" height="48" viewBox="0 0 48 48" fill="none" xmlns="http://www.w3.org/2000/svg">
<path fill-rule="evenodd" clip-rule="evenodd" d="M24 48C37.2548 48 48 37.2548 48 24C48 10.7452 37.2548 0 24 0C10.7452 0 0 10.7452 0 24C0 37.2548 10.7452 48 24 48ZM24 44C12.9543 44 4 35.0457 4 24C4 12.9543 12.9543 4 24 4C35.0457 4 44 12.9543 44 24C44 35.0457 35.0457 44 24 44ZM24 40C15.1634 40 8 32.8366 8 24C8 22.8954 8.89543 22 10 22C11.1046 22 12 22.8954 12 24C12 30.6274 17.3726 36 24 36C30.6274 36 36 30.6274 36 24C36 22.8954 36.8954 22 38 22C39.1046 22 40 22.8954 40 24C40 32.8366 32.8366 40 24 40ZM28 20C29.1046 20 30 19.1046 30 18C30 16.8954 29.1046 16 28 16C26.8954 16 26 16.8954 26 18C26 19.1046 26.8954 20 28 20ZM22 18C22 19.1046 21.1046 20 20 20C18.8954 20 18 19.1046 18 18C18 16.8954 18.8954 16 20 16C21.1046 16 22 16.8954 22 18Z" fill="#5DD136"/>
</svg>
